<?xml version="1.0" encoding="UTF-8"?>
<svg id="Capa_2" data-name="Capa 2" xmlns="http://www.w3.org/2000/svg" viewBox="0 0 437.26 101.29">
  <defs>
    <style>
      .cls-1 {
        fill: #fff;
      }
    </style>
  </defs>
  <g id="Capa_1-2" data-name="Capa 1">
    <g>
      <g>
        <path class="cls-1" d="M230.11,51.15c-.23-.37-.52-.69-.86-.97-.34-.28-.74-.5-1.17-.65-.43-.16-.89-.23-1.37-.23-.87,0-1.61.17-2.22.5-.61.34-1.1.79-1.48,1.36-.38.57-.65,1.21-.83,1.93-.17.72-.26,1.47-.26,2.24s.09,1.46.26,2.16c.17.7.45,1.33.83,1.89.38.56.87,1.01,1.48,1.34.61.34,1.35.51,2.22.51,1.18,0,2.11-.36,2.77-1.09s1.07-1.68,1.22-2.86h3.75c-.1,1.1-.35,2.1-.76,2.98-.41.89-.95,1.64-1.63,2.27-.67.63-1.46,1.1-2.37,1.43-.9.33-1.9.49-2.98.49-1.35,0-2.56-.23-3.64-.7-1.08-.47-1.98-1.11-2.73-1.94-.74-.82-1.3-1.79-1.7-2.9-.39-1.11-.59-2.3-.59-3.59s.2-2.53.59-3.66c.4-1.13.96-2.11,1.7-2.94.74-.84,1.65-1.5,2.73-1.97,1.08-.48,2.29-.71,3.64-.71.97,0,1.89.14,2.75.42s1.63.69,2.32,1.22,1.24,1.2,1.69,1.98c.44.79.72,1.69.84,2.71h-3.75c-.07-.44-.21-.85-.44-1.22Z"/>
        <path class="cls-1" d="M250.25,46.46v3.25h-9.29v3.77h8.53v3.01h-8.53v4.31h9.49v3.25h-13.36v-17.6h13.16Z"/>
        <path class="cls-1" d="M256.9,46.46l7.35,11.81h.05v-11.81h3.62v17.6h-3.87l-7.32-11.78h-.05v11.78h-3.62v-17.6h3.84Z"/>
        <path class="cls-1" d="M269.94,49.71v-3.25h14.42v3.25h-5.27v14.35h-3.87v-14.35h-5.27Z"/>
        <path class="cls-1" d="M295.87,46.46c.79,0,1.5.13,2.13.38.63.26,1.17.6,1.63,1.05.45.44.8.96,1.04,1.54.24.58.36,1.21.36,1.89,0,1.04-.22,1.93-.65,2.69-.44.76-1.15,1.33-2.13,1.73v.05c.48.13.87.33,1.18.6.31.27.57.59.76.96s.34.78.43,1.22c.09.44.15.89.19,1.33.02.28.03.61.05.99.01.38.04.76.09,1.16.04.39.11.77.2,1.12.09.35.22.65.41.9h-3.87c-.21-.56-.34-1.22-.4-2-.05-.77-.12-1.51-.22-2.22-.13-.92-.41-1.59-.84-2.02-.43-.43-1.13-.64-2.1-.64h-3.87v6.88h-3.87v-17.6h9.49ZM294.49,54.42c.89,0,1.55-.2,2-.59.44-.4.67-1.04.67-1.92s-.22-1.47-.67-1.86c-.44-.39-1.11-.58-2-.58h-4.24v4.95h4.24Z"/>
        <path class="cls-1" d="M304.01,51.67c.39-1.13.96-2.11,1.7-2.94.74-.84,1.65-1.5,2.72-1.97,1.08-.48,2.29-.71,3.64-.71s2.58.24,3.65.71c1.07.48,1.97,1.13,2.71,1.97.74.84,1.31,1.82,1.7,2.94.39,1.13.59,2.35.59,3.66s-.2,2.48-.59,3.59c-.4,1.11-.96,2.08-1.7,2.9-.74.82-1.64,1.47-2.71,1.94-1.07.47-2.28.7-3.65.7s-2.56-.23-3.64-.7c-1.08-.47-1.98-1.11-2.72-1.94-.74-.82-1.31-1.79-1.7-2.9-.39-1.11-.59-2.3-.59-3.59s.2-2.53.59-3.66ZM307.54,57.49c.17.7.45,1.33.83,1.89s.87,1.01,1.48,1.34c.61.34,1.35.51,2.22.51s1.61-.17,2.22-.51,1.1-.79,1.48-1.34c.38-.56.65-1.19.83-1.89.17-.7.26-1.42.26-2.16s-.09-1.52-.26-2.24c-.17-.72-.45-1.37-.83-1.93-.38-.57-.87-1.02-1.48-1.36-.61-.34-1.35-.5-2.22-.5s-1.61.17-2.22.5c-.61.34-1.1.79-1.48,1.36-.38.57-.65,1.21-.83,1.93-.17.72-.26,1.47-.26,2.24s.09,1.46.26,2.16Z"/>
        <path class="cls-1" d="M332.13,46.46l6.58,17.6h-4.02l-1.33-3.92h-6.58l-1.38,3.92h-3.9l6.66-17.6h3.97ZM332.35,57.25l-2.22-6.46h-.05l-2.29,6.46h4.56Z"/>
        <path class="cls-1" d="M345.69,46.46l4.12,12.1h.05l3.9-12.1h5.45v17.6h-3.62v-12.47h-.05l-4.31,12.47h-2.98l-4.31-12.35h-.05v12.35h-3.62v-17.6h5.45Z"/>
        <path class="cls-1" d="M375.76,46.46v3.25h-9.29v3.77h8.53v3.01h-8.53v4.31h9.49v3.25h-13.36v-17.6h13.16ZM369.65,40.52l-2.61,4.36h2.44l4.02-4.36h-3.84Z"/>
        <path class="cls-1" d="M388.06,46.46c.79,0,1.5.13,2.13.38.63.26,1.17.6,1.63,1.05.45.44.8.96,1.04,1.54.24.58.36,1.21.36,1.89,0,1.04-.22,1.93-.65,2.69-.44.76-1.15,1.33-2.13,1.73v.05c.48.13.87.33,1.18.6.31.27.57.59.76.96s.34.78.43,1.22c.09.44.15.89.19,1.33.02.28.03.61.05.99.01.38.04.76.09,1.16.04.39.11.77.2,1.12.09.35.22.65.41.9h-3.87c-.21-.56-.34-1.22-.4-2-.05-.77-.12-1.51-.22-2.22-.13-.92-.41-1.59-.84-2.02-.43-.43-1.13-.64-2.1-.64h-3.87v6.88h-3.87v-17.6h9.49ZM386.68,54.42c.89,0,1.55-.2,2-.59.44-.4.67-1.04.67-1.92s-.22-1.47-.67-1.86c-.44-.39-1.11-.58-2-.58h-4.24v4.95h4.24Z"/>
        <path class="cls-1" d="M400.24,46.46v17.6h-3.87v-17.6h3.87Z"/>
        <path class="cls-1" d="M414.93,51.15c-.23-.37-.52-.69-.86-.97-.35-.28-.74-.5-1.17-.65-.43-.16-.89-.23-1.37-.23-.87,0-1.61.17-2.22.5-.61.34-1.1.79-1.48,1.36-.38.57-.65,1.21-.83,1.93-.17.72-.26,1.47-.26,2.24s.09,1.46.26,2.16.45,1.33.83,1.89.87,1.01,1.48,1.34c.61.34,1.35.51,2.22.51,1.18,0,2.11-.36,2.77-1.09s1.07-1.68,1.22-2.86h3.75c-.1,1.1-.35,2.1-.76,2.98-.41.89-.95,1.64-1.63,2.27-.67.63-1.46,1.1-2.37,1.43s-1.9.49-2.98.49c-1.35,0-2.56-.23-3.64-.7-1.08-.47-1.98-1.11-2.72-1.94-.74-.82-1.31-1.79-1.7-2.9-.39-1.11-.59-2.3-.59-3.59s.2-2.53.59-3.66c.39-1.13.96-2.11,1.7-2.94.74-.84,1.65-1.5,2.72-1.97,1.08-.48,2.29-.71,3.64-.71.97,0,1.89.14,2.75.42s1.64.69,2.32,1.22c.68.53,1.24,1.2,1.69,1.98.44.79.72,1.69.84,2.71h-3.75c-.07-.44-.21-.85-.44-1.22Z"/>
        <path class="cls-1" d="M430.68,46.46l6.58,17.6h-4.02l-1.33-3.92h-6.58l-1.38,3.92h-3.89l6.65-17.6h3.97ZM430.9,57.25l-2.22-6.46h-.05l-2.29,6.46h4.56Z"/>
        <path class="cls-1" d="M216.92,71.19h4.34l4.12,6.95,4.09-6.95h4.31l-6.53,10.85v6.75h-3.87v-6.85l-6.46-10.75Z"/>
        <path class="cls-1" d="M253.4,75.89c-.23-.37-.52-.69-.86-.97-.34-.28-.74-.5-1.17-.65-.43-.16-.89-.23-1.37-.23-.87,0-1.61.17-2.22.5-.61.34-1.1.79-1.48,1.36-.38.57-.65,1.21-.83,1.93-.17.72-.26,1.47-.26,2.24s.09,1.46.26,2.16c.17.7.45,1.33.83,1.89.38.56.87,1.01,1.48,1.34.61.34,1.35.51,2.22.51,1.18,0,2.11-.36,2.77-1.09s1.07-1.68,1.22-2.86h3.75c-.1,1.1-.35,2.1-.76,2.98-.41.89-.95,1.64-1.63,2.27-.67.63-1.46,1.1-2.37,1.43-.9.33-1.9.49-2.98.49-1.35,0-2.56-.23-3.64-.7-1.08-.47-1.98-1.11-2.73-1.94-.74-.82-1.3-1.79-1.7-2.9-.39-1.11-.59-2.3-.59-3.59s.2-2.53.59-3.66c.4-1.13.96-2.11,1.7-2.94.74-.84,1.65-1.5,2.73-1.97,1.08-.48,2.29-.71,3.64-.71.97,0,1.89.14,2.75.42s1.63.69,2.32,1.22,1.24,1.2,1.69,1.98c.44.79.72,1.69.84,2.71h-3.75c-.07-.44-.21-.85-.44-1.22Z"/>
        <path class="cls-1" d="M269.15,71.19l6.58,17.6h-4.02l-1.33-3.92h-6.58l-1.38,3.92h-3.89l6.65-17.6h3.97ZM269.37,81.99l-2.22-6.46h-.05l-2.29,6.46h4.56Z"/>
        <path class="cls-1" d="M286.75,71.19c.79,0,1.5.13,2.13.38.63.26,1.18.6,1.63,1.05s.8.96,1.03,1.54c.24.58.36,1.21.36,1.89,0,1.04-.22,1.93-.65,2.69-.44.76-1.15,1.33-2.13,1.73v.05c.48.13.87.33,1.18.6.31.27.57.59.76.96s.34.78.43,1.22c.09.44.15.89.19,1.33.01.28.03.61.05.99.02.38.04.76.09,1.16.04.39.11.77.2,1.12s.23.65.41.9h-3.87c-.21-.56-.35-1.22-.39-2-.05-.77-.12-1.51-.22-2.22-.13-.92-.41-1.59-.84-2.02-.43-.43-1.13-.64-2.1-.64h-3.87v6.88h-3.87v-17.6h9.49ZM285.37,79.15c.89,0,1.55-.2,2-.59.44-.4.67-1.04.67-1.92s-.22-1.47-.67-1.86c-.44-.39-1.11-.58-2-.58h-4.24v4.95h4.24Z"/>
        <path class="cls-1" d="M298.93,71.19v17.6h-3.87v-17.6h3.87Z"/>
        <path class="cls-1" d="M310.61,71.19c.84,0,1.6.07,2.29.22s1.28.39,1.78.73c.49.34.87.79,1.15,1.34.27.56.41,1.25.41,2.07,0,.89-.2,1.63-.6,2.22-.4.59-1,1.08-1.79,1.46,1.08.31,1.89.86,2.43,1.64.53.78.8,1.72.8,2.82,0,.89-.17,1.66-.52,2.3-.34.65-.81,1.18-1.39,1.59-.59.41-1.25.71-2,.91-.75.2-1.52.3-2.3.3h-8.53v-17.6h8.28ZM310.12,78.31c.69,0,1.26-.16,1.7-.49.44-.33.67-.86.67-1.6,0-.41-.07-.75-.22-1.01-.15-.26-.34-.47-.59-.62-.24-.15-.53-.25-.85-.31-.32-.06-.65-.09-1-.09h-3.62v4.12h3.92ZM310.34,85.78c.38,0,.74-.04,1.09-.11.34-.07.65-.2.91-.37s.47-.41.63-.7c.16-.3.23-.67.23-1.13,0-.9-.25-1.55-.76-1.93-.51-.39-1.18-.58-2.02-.58h-4.21v4.83h4.14Z"/>
        <path class="cls-1" d="M332.85,71.19v3.25h-9.29v3.77h8.53v3.01h-8.53v4.31h9.49v3.25h-13.36v-17.6h13.16Z"/>
      </g>
      <g>
        <path class="cls-1" d="M155.57,50.87c.51.05,2.74.59,2.98.99.47,3-1.89,4.34-4.53,4.54-1.42.11-3.2-.19-4.55-.01-.19.03-.37.03-.5.21-.88,2.23-7.01,12.83-8.7,16.09-.95,1.82-2.6,3.78-2.47,6,.19,3.16,3.27,1.28,4.76.27,6.65-4.5,14.11-11.39,19.45-17.38.49-.55,1.71-1.95,1.99-2.54.08-.17.18-.29.13-.51-4.78-1.27-4.89-7.64-3.05-11.34.88-1.77,2.1-3.13,3.54-4.21,1.61-1.21,4.99-3.57,8.72-2.8,6.7,1.38,1.41,9.31-.56,12.88,1.89,1.12,4.89.15,6.93-.41,1.79-.49,4.53-1.82,6.27-1.59,3.4.45,2.96,4.06,2.06,6.52-2.2,5.98-6.17,12.01-8.49,18-.43,1.12-.68,2.14-.32,3.24.11.33.45.52.78.42,3.64-1.05,6.54-7.97,10.12-7.96.68,0,1.65.89,1.74,1.52.16,1.02-1.62,3.24-2.31,4.01-3.89,4.4-14.29,14.21-20.12,14.73-5.01.45-9-2.43-8.57-7.72.14-1.63,1.04-3.81,2.29-6.1,2.34-4.27,12.47-15.21,12.45-17.14,0-.13.05-.3-.1-.36-.82-.27-1.69-.43-2.55-.53-.85-.1-3.17-.36-3.81.12-.38.28-1.58,2.2-2.05,2.77-7.6,9.2-15.22,17.45-25.37,23.94-4.21,2.69-12.35,7.44-16.99,3.7-2.42-1.95-3.1-4.03-2.76-7.16.6-5.69,7.72-16.24,7.44-16.57-.58.14-3.23,3.9-4.39,5.32-5.35,6.52-10.17,12.83-17.59,17.27-4.71,2.82-13.87,4.53-14.45-3.24-.19-2.58,2.34-8.43,3.52-10.94,1.21-2.55,2.86-5.17,4.25-7.66.07-.12.31-.36.1-.47-.71.59-8.19,10.39-11.9,14.16-2.66,2.71-5.49,5.22-8.53,7.35-3.27,2.29-8.85,5.9-12.59,2.71-2.39-2.04-2.32-5.33-1.38-8.73,1.05-3.76,8.96-20.76,9.69-22.48.22-.52.62-1.25.47-1.79-5.04,3.63-13.27,5.21-14.53,5.74-.45,1.7-9.14,18.71-13.47,24.17-3.41,4.31-7.78,7.93-14.49,10.78-7.81,3.33-16.4,3.54-24.36.51-6.16-2.34-13.23-8.13-7.96-15.11,6.63-8.78,29.4-8.17,35.74.93.31.45,1.84,3.44,2.08,3.44.22-.17.23-.45.29-.7.59-2.59,1.29-5.16,2.11-7.71,1.17-3.64,6.81-15.76,6.59-15.96-5.31.25-10.86-1.38-15.54-3.8-13.35-6.91-16.47-22.05-10.56-35.26C28.37,12.04,43.21,2.55,57.1.85c27.84-3.4,56.55,3.95,83.07,12,10.22,3.1,18.09,6.43,29.01,7.55,2.23.23,6.89.14,8.7-1.22,1.13-.84,1.43-1.79,3.17-1.44.93.19,1.15.73,1.23,1.6.45,4.86-3.24,11.23-7.24,13.87-7,4.64-13.63.4-20.36-2.15-9.28-3.52-18.84-6.93-28.3-9.96-13.04-4.18-26.38-8.26-39.86-10.72-15.9-2.9-35.55-3.94-48.69,7.04-6.74,5.63-12.12,15.6-10.82,24.56,1.5,10.33,7.73,14.77,17.52,16.49,1.16.2,5.45.85,6.26.26.67-1.7,1.39-3.37,2.24-4.98,4.31-8.2,10.61-18.14,16.81-24.99,4.75-5.26,7.67-7.63,14.72-9.37,2.85-.7,4.02-.74,6.93-.09,1.12.25,1.61,1.06.8,2.01-.26.3-2.51.65-3.13.83-8.46,2.4-13.2,10.18-16.81,17.62-2.52,5.2-4.95,10.86-7.17,16.21-.07.16-.74,1.71-.43,1.7,1.88-.62,5.77-.55,12.26-4.04,1.5-.8,3.94-3.46,5.64-3.24,2.19.29,6.12,5.85,6.36,7.95.17,1.46-1.78,6.09-2.41,7.72-1.12,2.88-2.53,5.65-3.67,8.51-.43,1.08-1.19,2.85-.96,3.99.03.13.45.78.52.79.37.08.89-.4,1.18-.64,9.49-7.79,17.04-18.33,24.28-28.14,2.02-2.73,3.83-5.61,5.4-8.62,1.99-3.81,4.21-9.68,7.02-12.82,1.56-1.74,2.72-1.38,4.32.06,2.39,2.15,4.82,6.64,3.78,9.88-1.26,3.92-4.49,8.89-6.38,12.75-2.49,5.09-4.83,10.28-7.27,15.4-1.2,2.52-2.8,5.25-3.83,7.79-.39.97-.93,2.26-.57,3.29.16.46.67.72,1.14.59,1.74-.47,3.15-2.1,4.34-3.36,4.55-4.81,16.63-17.31,17.21-19.27-2.15-.43-5.14-.37-3.9-3.55.86-2.21,6.78-1.46,8.66-2.11,1.2-1.73,2.42-3.47,3.52-5.27,1.56-2.54,3.04-5.98,5.05-8.13.75-.81.88-.98,2.06-.65,2.39.68,5.15,4.36,5.58,6.75.5,2.77-1.42,4.95-1.83,7.57,1.08.07,2.27-.1,3.33,0ZM168.43,44.88c-1.32.95-2.84,2.57-2.56,4.32.17,1.05,1.71,3.01,2.87,2.8.19,0,.24-.13.34-.23.35-.35,1.5-2.46,1.79-3.03.53-1.03,1.7-3.29.92-4.33-.27-.36-1.79-.67-3.36.47Z"/>
        <path class="cls-1" d="M94.26,32.77c10.94-1.16,8.19,14.44-.67,16.61-8.64,2.12-10-6.45-6.24-12.33,1.85-2.9,3.46-3.91,6.91-4.28Z"/>
      </g>
    </g>
  </g>
</svg>